<?xml version="1.0" encoding="utf-8"?>
<!-- Generator: Adobe Illustrator 16.0.0, SVG Export Plug-In . SVG Version: 6.00 Build 0)  -->
<!DOCTYPE svg PUBLIC "-//W3C//DTD SVG 1.1//EN" "http://www.w3.org/Graphics/SVG/1.1/DTD/svg11.dtd">
<svg version="1.1" id="圖層_1" xmlns="http://www.w3.org/2000/svg" xmlns:xlink="http://www.w3.org/1999/xlink" x="0px" y="0px"
	 width="396.85px" height="283.46px" viewBox="0 0 396.85 283.46" enable-background="new 0 0 396.85 283.46" xml:space="preserve">
<g>
	<path fill="#0071CE" d="M349.469,229.961c0,5.984-5.294,10.852-11.801,10.852H56.178c-6.507,0-11.801-4.867-11.801-10.852V53.313
		c0-5.984,5.294-10.852,11.801-10.852h281.49c6.507,0,11.801,4.867,11.801,10.852v29.963h9.28V53.313
		c0-10.689-9.457-19.387-21.081-19.387H56.178c-11.625,0-21.082,8.697-21.082,19.387v176.648c0,10.689,9.457,19.387,21.082,19.387
		h281.49c11.624,0,21.081-8.697,21.081-19.387v-53.426h-9.28V229.961z"/>
</g>
<g>
	<path fill="#0071CE" d="M70.831,213.969c-0.694-0.731-1.539-1.247-2.512-1.534c-0.715-0.208-1.758-0.313-3.099-0.313h-5.874
		c-0.138,0-0.25,0.112-0.25,0.25v15.918c0,0.138,0.112,0.25,0.25,0.25h6.048c1.209,0,2.192-0.117,2.921-0.348
		c0.982-0.315,1.774-0.763,2.356-1.329c0.763-0.741,1.358-1.721,1.767-2.911c0.333-0.971,0.502-2.138,0.502-3.469
		c0-1.513-0.18-2.806-0.535-3.844C72.047,215.592,71.518,214.694,70.831,213.969z M62.81,215.314h1.194
		c1.284,0,2.153,0.049,2.586,0.146c0.552,0.12,1.013,0.351,1.368,0.687c0.359,0.339,0.644,0.823,0.847,1.438
		c0.208,0.633,0.313,1.561,0.313,2.757c0,1.197-0.106,2.153-0.315,2.843c-0.202,0.665-0.461,1.145-0.771,1.423
		c-0.311,0.282-0.711,0.485-1.19,0.605c-0.376,0.096-1.01,0.145-1.883,0.145H62.81V215.314z"/>
	<path fill="#0071CE" d="M85.113,226.692c-0.094-0.463-0.142-1.2-0.142-2.19l0.032-3.563c0-1.38-0.143-2.313-0.438-2.852
		c-0.295-0.539-0.806-0.987-1.517-1.331c-0.707-0.343-1.737-0.509-3.149-0.509c-1.543,0-2.731,0.286-3.532,0.85
		c-0.804,0.565-1.377,1.444-1.704,2.612c-0.019,0.068-0.008,0.141,0.029,0.2c0.038,0.06,0.098,0.101,0.167,0.113l2.77,0.499
		c0.123,0.022,0.239-0.047,0.28-0.163c0.169-0.483,0.387-0.82,0.646-1.002c0.259-0.182,0.638-0.274,1.126-0.274
		c0.919,0,1.31,0.171,1.477,0.314c0.23,0.198,0.347,0.557,0.347,1.064v0.134c-0.557,0.208-1.484,0.434-2.761,0.674
		c-1.091,0.209-1.905,0.448-2.488,0.731c-0.604,0.292-1.08,0.719-1.413,1.269c-0.334,0.546-0.503,1.176-0.503,1.872
		c0,1.052,0.372,1.935,1.104,2.625c0.729,0.687,1.731,1.035,2.979,1.035c0.704,0,1.376-0.135,1.999-0.401
		c0.507-0.216,0.993-0.523,1.449-0.917c0.114,0.391,0.213,0.693,0.293,0.897c0.038,0.096,0.13,0.159,0.233,0.159h3.019
		c0.086,0,0.167-0.044,0.212-0.117c0.046-0.073,0.051-0.165,0.013-0.242C85.384,227.651,85.206,227.151,85.113,226.692z
		 M81.507,223.09v0.27c0,0.875-0.059,1.253-0.109,1.418c-0.101,0.348-0.31,0.636-0.634,0.878c-0.848,0.611-1.881,0.671-2.47,0.1
		c-0.271-0.265-0.402-0.568-0.402-0.929c0-0.352,0.161-0.637,0.486-0.868c0.161-0.106,0.565-0.279,1.575-0.495
		C80.61,223.322,81.123,223.199,81.507,223.09z"/>
	<path fill="#0071CE" d="M93.171,225.515c-0.066-0.042-0.146-0.052-0.218-0.022c-0.808,0.294-1.25,0.36-1.511,0.173
		c-0.094-0.068-0.15-0.146-0.175-0.245c-0.016-0.061-0.052-0.335-0.052-1.582v-4.398h1.835c0.138,0,0.25-0.112,0.25-0.25v-2.432
		c0-0.138-0.112-0.25-0.25-0.25h-1.835v-3.822c0-0.09-0.048-0.172-0.125-0.217c-0.077-0.045-0.173-0.044-0.25,0.001l-3.062,1.781
		c-0.077,0.045-0.125,0.127-0.125,0.216v2.041h-1.15c-0.138,0-0.25,0.112-0.25,0.25v2.432c0,0.138,0.112,0.25,0.25,0.25h1.15v4.778
		c0,1.106,0.033,1.824,0.101,2.188c0.086,0.536,0.245,0.972,0.472,1.295c0.234,0.331,0.597,0.602,1.08,0.803
		c0.472,0.197,1.005,0.297,1.584,0.297c0.928,0,1.772-0.16,2.509-0.478c0.101-0.043,0.162-0.147,0.15-0.257l-0.261-2.367
		C93.279,225.623,93.236,225.555,93.171,225.515z"/>
	<path fill="#0071CE" d="M104.887,226.692c-0.094-0.463-0.142-1.2-0.142-2.19l0.032-3.563c0-1.38-0.143-2.313-0.438-2.852
		c-0.295-0.539-0.806-0.987-1.517-1.331c-0.707-0.343-1.737-0.509-3.149-0.509c-1.543,0-2.731,0.286-3.532,0.85
		c-0.804,0.565-1.377,1.444-1.704,2.612c-0.019,0.068-0.008,0.141,0.029,0.2c0.038,0.06,0.098,0.101,0.167,0.113l2.77,0.499
		c0.123,0.022,0.239-0.047,0.28-0.163c0.169-0.483,0.387-0.82,0.646-1.002c0.259-0.182,0.638-0.274,1.126-0.274
		c0.919,0,1.31,0.171,1.477,0.314c0.23,0.198,0.347,0.557,0.347,1.064v0.134c-0.557,0.208-1.484,0.434-2.761,0.674
		c-1.091,0.209-1.905,0.448-2.488,0.731c-0.604,0.292-1.08,0.719-1.413,1.269c-0.334,0.546-0.503,1.176-0.503,1.872
		c0,1.052,0.372,1.935,1.104,2.625c0.729,0.687,1.731,1.035,2.979,1.035c0.704,0,1.376-0.135,1.999-0.401
		c0.507-0.216,0.993-0.523,1.449-0.917c0.114,0.391,0.213,0.693,0.293,0.897c0.038,0.096,0.13,0.159,0.233,0.159h3.019
		c0.086,0,0.167-0.044,0.212-0.117c0.046-0.073,0.051-0.165,0.013-0.242C105.157,227.651,104.979,227.151,104.887,226.692z
		 M101.28,223.09v0.27c0,0.875-0.059,1.253-0.109,1.418c-0.101,0.348-0.31,0.636-0.634,0.878c-0.849,0.611-1.881,0.671-2.47,0.1
		c-0.271-0.265-0.402-0.568-0.402-0.929c0-0.352,0.161-0.637,0.486-0.868c0.161-0.106,0.565-0.279,1.575-0.495
		C100.384,223.322,100.896,223.199,101.28,223.09z"/>
	<path fill="#0071CE" d="M121.123,212.278c-0.038-0.095-0.13-0.157-0.232-0.157h-3.398c-0.103,0-0.195,0.063-0.233,0.159
		l-6.2,15.918c-0.03,0.077-0.02,0.164,0.026,0.231c0.047,0.068,0.124,0.109,0.207,0.109h3.409c0.105,0,0.199-0.065,0.235-0.165
		l1.255-3.45h6.016l1.328,3.455c0.037,0.097,0.13,0.16,0.233,0.16h3.496c0.002,0,0.006,0,0.013,0c0.138,0,0.25-0.112,0.25-0.25
		c0-0.061-0.021-0.115-0.057-0.158L121.123,212.278z M120.987,221.742h-3.626l1.795-4.934L120.987,221.742z"/>
	<path fill="#0071CE" d="M138.872,217.638c-0.311-0.409-0.771-0.747-1.365-1.006c-0.588-0.255-1.243-0.385-1.945-0.385
		c-1.382,0-2.574,0.515-3.551,1.53v-1.02c0-0.138-0.112-0.25-0.25-0.25h-2.834c-0.138,0-0.25,0.112-0.25,0.25v11.531
		c0,0.138,0.112,0.25,0.25,0.25h3.052c0.138,0,0.25-0.112,0.25-0.25v-5.223c0-1.258,0.074-2.123,0.221-2.572
		c0.139-0.428,0.39-0.762,0.767-1.022c0.381-0.263,0.8-0.39,1.28-0.39c0.364,0,0.664,0.085,0.917,0.26
		c0.251,0.173,0.429,0.412,0.542,0.73c0.083,0.231,0.181,0.825,0.181,2.332v5.885c0,0.138,0.112,0.25,0.25,0.25h3.052
		c0.138,0,0.25-0.112,0.25-0.25v-7.166c0-0.903-0.059-1.613-0.176-2.11C139.394,218.505,139.178,218.042,138.872,217.638z"/>
	<path fill="#0071CE" d="M152.252,226.692c-0.094-0.463-0.142-1.2-0.142-2.19l0.032-3.563c0-1.38-0.143-2.313-0.438-2.852
		c-0.295-0.539-0.806-0.987-1.517-1.331c-0.707-0.343-1.737-0.509-3.149-0.509c-1.543,0-2.731,0.286-3.532,0.85
		c-0.804,0.565-1.377,1.444-1.704,2.612c-0.019,0.068-0.008,0.141,0.029,0.2c0.038,0.06,0.098,0.101,0.167,0.113l2.77,0.499
		c0.12,0.022,0.24-0.047,0.28-0.163c0.169-0.483,0.387-0.82,0.646-1.002c0.259-0.182,0.638-0.274,1.126-0.274
		c0.919,0,1.31,0.171,1.477,0.314c0.23,0.198,0.347,0.557,0.347,1.064v0.134c-0.557,0.208-1.484,0.434-2.761,0.674
		c-1.091,0.209-1.905,0.448-2.488,0.731c-0.604,0.292-1.08,0.719-1.413,1.269c-0.334,0.546-0.503,1.176-0.503,1.872
		c0,1.052,0.372,1.935,1.104,2.625c0.729,0.687,1.731,1.035,2.979,1.035c0.704,0,1.376-0.135,1.999-0.401
		c0.507-0.216,0.993-0.523,1.449-0.917c0.114,0.391,0.213,0.693,0.293,0.897c0.038,0.096,0.13,0.159,0.233,0.159h3.019
		c0.086,0,0.167-0.044,0.212-0.117c0.046-0.073,0.051-0.165,0.013-0.242C152.522,227.651,152.345,227.151,152.252,226.692z
		 M148.646,223.09v0.27c0,0.875-0.059,1.253-0.109,1.418c-0.101,0.348-0.31,0.636-0.634,0.878c-0.848,0.611-1.882,0.671-2.47,0.1
		c-0.271-0.265-0.402-0.568-0.402-0.929c0-0.352,0.161-0.637,0.486-0.868c0.161-0.106,0.565-0.279,1.575-0.495
		C147.749,223.322,148.262,223.199,148.646,223.09z"/>
	<path fill="#0071CE" d="M157.951,212.121H154.9c-0.138,0-0.25,0.112-0.25,0.25v15.918c0,0.138,0.112,0.25,0.25,0.25h3.051
		c0.138,0,0.25-0.112,0.25-0.25v-15.918C158.201,212.233,158.089,212.121,157.951,212.121z"/>
	<path fill="#0071CE" d="M171.492,216.508h-3.16c-0.108,0-0.204,0.069-0.237,0.172l-2.458,7.474l-2.519-7.476
		c-0.034-0.102-0.129-0.17-0.237-0.17h-3.246c-0.082,0-0.159,0.04-0.206,0.108c-0.047,0.067-0.057,0.153-0.028,0.23l4.357,11.486
		c-0.17,0.573-0.41,1.052-0.713,1.422c-0.461,0.564-1.366,0.642-2.624,0.396c-0.079-0.014-0.16,0.007-0.218,0.062
		c-0.059,0.054-0.088,0.133-0.079,0.212l0.271,2.389c0.012,0.106,0.091,0.193,0.195,0.216c0.579,0.126,1.178,0.19,1.78,0.19
		c0.598,0,1.144-0.065,1.622-0.193c0.487-0.13,0.904-0.315,1.241-0.552c0.338-0.238,0.641-0.55,0.899-0.928
		c0.253-0.371,0.52-0.906,0.794-1.598l4.8-13.105c0.028-0.076,0.017-0.162-0.03-0.229
		C171.65,216.548,171.574,216.508,171.492,216.508z"/>
	<path fill="#0071CE" d="M178.855,225.515c-0.065-0.042-0.146-0.052-0.218-0.022c-0.808,0.294-1.25,0.36-1.511,0.173
		c-0.094-0.068-0.15-0.146-0.175-0.245c-0.016-0.061-0.052-0.335-0.052-1.582v-4.398h1.835c0.138,0,0.25-0.112,0.25-0.25v-2.432
		c0-0.138-0.112-0.25-0.25-0.25H176.9v-3.822c0-0.09-0.048-0.172-0.125-0.217s-0.173-0.044-0.25,0.001l-3.062,1.781
		c-0.077,0.045-0.125,0.127-0.125,0.216v2.041h-1.15c-0.138,0-0.25,0.112-0.25,0.25v2.432c0,0.138,0.112,0.25,0.25,0.25h1.15v4.778
		c0,1.106,0.033,1.824,0.101,2.188c0.086,0.536,0.245,0.972,0.472,1.295c0.234,0.331,0.597,0.602,1.08,0.803
		c0.472,0.197,1.005,0.297,1.584,0.297c0.928,0,1.772-0.16,2.509-0.478c0.101-0.043,0.162-0.147,0.15-0.257l-0.261-2.367
		C178.964,225.623,178.921,225.555,178.855,225.515z"/>
	<path fill="#0071CE" d="M183.903,216.508h-3.051c-0.138,0-0.25,0.112-0.25,0.25v11.531c0,0.138,0.112,0.25,0.25,0.25h3.051
		c0.138,0,0.25-0.112,0.25-0.25v-11.531C184.153,216.62,184.042,216.508,183.903,216.508z"/>
	<path fill="#0071CE" d="M183.903,212.121h-3.051c-0.138,0-0.25,0.112-0.25,0.25v2.823c0,0.138,0.112,0.25,0.25,0.25h3.051
		c0.138,0,0.25-0.112,0.25-0.25v-2.823C184.153,212.233,184.042,212.121,183.903,212.121z"/>
	<path fill="#0071CE" d="M197.279,224.135l-2.996-0.511c-0.136-0.029-0.263,0.065-0.288,0.199c-0.141,0.745-0.377,1.27-0.703,1.56
		c-0.325,0.29-0.736,0.431-1.256,0.431c-0.702,0-1.244-0.247-1.657-0.755c-0.42-0.516-0.633-1.438-0.633-2.741
		c0-1.163,0.208-1.995,0.617-2.471c0.408-0.471,0.941-0.7,1.63-0.7c0.508,0,0.923,0.134,1.234,0.397
		c0.31,0.263,0.514,0.67,0.604,1.209c0.011,0.065,0.048,0.124,0.103,0.162c0.054,0.039,0.121,0.055,0.188,0.042l3.008-0.543
		c0.07-0.013,0.131-0.055,0.168-0.114c0.038-0.061,0.047-0.134,0.027-0.202c-0.376-1.287-1.009-2.262-1.878-2.896
		c-0.868-0.634-2.045-0.955-3.498-0.955c-1.779,0-3.213,0.562-4.263,1.669c-1.047,1.103-1.579,2.657-1.579,4.619
		c0,1.938,0.529,3.483,1.572,4.591c1.048,1.111,2.467,1.675,4.216,1.675c1.534,0,2.781-0.373,3.707-1.108
		c0.925-0.735,1.557-1.831,1.879-3.257c0.015-0.066,0.002-0.137-0.036-0.193C197.407,224.185,197.347,224.146,197.279,224.135z"/>
	<path fill="#0071CE" d="M204.791,220.813c-2.077-0.471-2.619-0.713-2.756-0.813c-0.184-0.138-0.205-0.268-0.205-0.354
		c0-0.17,0.076-0.301,0.233-0.409c0.305-0.197,0.84-0.297,1.591-0.297c0.582,0,1.028,0.105,1.329,0.313
		c0.297,0.207,0.493,0.499,0.602,0.893c0.034,0.125,0.161,0.203,0.286,0.18l2.878-0.531c0.07-0.013,0.131-0.055,0.168-0.114
		c0.037-0.061,0.047-0.133,0.027-0.201c-0.306-1.06-0.873-1.874-1.688-2.42c-0.806-0.539-2.036-0.812-3.656-0.812
		c-1.711,0-3.001,0.363-3.834,1.081c-0.843,0.728-1.271,1.639-1.271,2.709c0,1.189,0.497,2.133,1.478,2.803
		c0.693,0.471,2.253,0.97,4.765,1.523c0.632,0.147,0.838,0.276,0.896,0.33c0.1,0.105,0.148,0.237,0.148,0.404
		c0,0.263-0.096,0.459-0.298,0.612c-0.354,0.256-0.903,0.386-1.635,0.386c-0.656,0-1.168-0.138-1.519-0.408
		c-0.354-0.274-0.583-0.669-0.702-1.208c-0.028-0.129-0.152-0.213-0.282-0.193l-3.061,0.467c-0.07,0.011-0.132,0.051-0.171,0.109
		c-0.039,0.059-0.051,0.132-0.034,0.2c0.296,1.146,0.935,2.067,1.896,2.737c0.954,0.664,2.257,1.001,3.872,1.001
		c1.783,0,3.157-0.404,4.083-1.201c0.937-0.806,1.412-1.786,1.412-2.915c0-1.042-0.352-1.87-1.046-2.462
		C207.619,221.656,206.472,221.195,204.791,220.813z"/>
	<path fill="#0071CE" d="M231.344,223.187l-3.117-0.987c-0.066-0.021-0.139-0.015-0.199,0.021c-0.061,0.034-0.104,0.093-0.12,0.161
		c-0.254,1.107-0.673,1.926-1.245,2.431c-0.565,0.499-1.252,0.752-2.039,0.752c-1.091,0-1.952-0.391-2.633-1.192
		c-0.681-0.805-1.026-2.197-1.026-4.14c0-1.825,0.35-3.154,1.04-3.951c0.691-0.797,1.569-1.185,2.684-1.185
		c0.792,0,1.472,0.223,2.021,0.662c0.549,0.438,0.915,1.05,1.09,1.814c0.016,0.065,0.056,0.121,0.112,0.156
		c0.057,0.036,0.126,0.046,0.189,0.031l3.182-0.76c0.066-0.016,0.124-0.058,0.158-0.117c0.034-0.059,0.043-0.129,0.024-0.194
		c-0.373-1.313-0.944-2.338-1.697-3.045c-1.258-1.191-2.912-1.795-4.917-1.795c-2.292,0-4.169,0.767-5.579,2.278
		c-1.406,1.506-2.119,3.64-2.119,6.343c0,2.561,0.71,4.611,2.109,6.096c1.402,1.489,3.217,2.244,5.394,2.244
		c1.756,0,3.229-0.442,4.381-1.315c1.149-0.872,1.981-2.219,2.474-4.004C231.545,223.361,231.472,223.227,231.344,223.187z"/>
	<path fill="#0071CE" d="M239.238,216.247c-1.166,0-2.238,0.263-3.188,0.779c-0.956,0.522-1.704,1.288-2.225,2.275
		c-0.516,0.981-0.777,2.011-0.777,3.06c0,1.359,0.262,2.534,0.779,3.49c0.521,0.964,1.294,1.706,2.296,2.206
		c0.993,0.493,2.048,0.743,3.136,0.743c1.771,0,3.261-0.604,4.43-1.797c1.168-1.189,1.76-2.708,1.76-4.513
		c0-1.789-0.587-3.293-1.743-4.47C242.547,216.844,241.044,216.247,239.238,216.247z M241.812,222.502
		c0,1.09-0.251,1.925-0.745,2.483c-0.495,0.558-1.09,0.828-1.817,0.828c-0.729,0-1.324-0.271-1.822-0.828
		c-0.498-0.559-0.751-1.387-0.751-2.462s0.253-1.903,0.751-2.461c0.498-0.557,1.094-0.828,1.822-0.828
		c0.728,0,1.322,0.271,1.817,0.828C241.561,220.62,241.812,221.44,241.812,222.502z"/>
	<path fill="#0071CE" d="M250.64,212.121h-3.051c-0.138,0-0.25,0.112-0.25,0.25v15.918c0,0.138,0.112,0.25,0.25,0.25h3.051
		c0.138,0,0.25-0.112,0.25-0.25v-15.918C250.89,212.233,250.777,212.121,250.64,212.121z"/>
	<path fill="#0071CE" d="M256.818,212.121h-3.051c-0.138,0-0.25,0.112-0.25,0.25v15.918c0,0.138,0.112,0.25,0.25,0.25h3.051
		c0.138,0,0.25-0.112,0.25-0.25v-15.918C257.068,212.233,256.956,212.121,256.818,212.121z"/>
	<path fill="#0071CE" d="M265.18,216.247c-1.166,0-2.238,0.263-3.188,0.779c-0.956,0.522-1.704,1.288-2.225,2.275
		c-0.516,0.981-0.777,2.011-0.777,3.06c0,1.359,0.262,2.534,0.779,3.49c0.521,0.964,1.294,1.706,2.296,2.206
		c0.993,0.493,2.048,0.743,3.136,0.743c1.771,0,3.261-0.604,4.43-1.797c1.168-1.189,1.76-2.708,1.76-4.513
		c0-1.789-0.587-3.293-1.743-4.47C268.488,216.844,266.985,216.247,265.18,216.247z M267.753,222.502
		c0,1.09-0.251,1.925-0.745,2.483c-0.495,0.558-1.09,0.828-1.817,0.828c-0.729,0-1.324-0.271-1.822-0.828
		c-0.498-0.559-0.751-1.387-0.751-2.462s0.253-1.903,0.751-2.461c0.498-0.557,1.094-0.828,1.822-0.828
		c0.728,0,1.322,0.271,1.817,0.828C267.502,220.62,267.753,221.44,267.753,222.502z"/>
	<path fill="#0071CE" d="M284.117,216.508h-2.812c-0.138,0-0.25,0.112-0.25,0.25v0.958c-0.342-0.396-0.716-0.712-1.117-0.945
		c-0.598-0.348-1.311-0.523-2.118-0.523c-1.457,0-2.694,0.552-3.677,1.641c-0.976,1.081-1.471,2.598-1.471,4.506
		c0,2.021,0.524,3.651,1.559,4.843c0.893,1.038,2.046,1.564,3.426,1.564c0.724,0,1.408-0.161,2.035-0.479
		c0.419-0.212,0.795-0.478,1.124-0.793v5.146c0,0.138,0.112,0.25,0.25,0.25h3.052c0.138,0,0.25-0.112,0.25-0.25v-15.918
		C284.367,216.62,284.255,216.508,284.117,216.508z M280.913,222.383c0,1.179-0.247,2.07-0.733,2.651
		c-0.484,0.576-1.025,0.855-1.655,0.855c-0.631,0-1.147-0.246-1.579-0.754c-0.437-0.512-0.657-1.38-0.657-2.579
		c0-1.208,0.23-2.093,0.686-2.63c0.449-0.531,0.992-0.79,1.659-0.79c0.653,0,1.182,0.253,1.617,0.773
		C280.689,220.436,280.913,221.268,280.913,222.383z"/>
	<path fill="#0071CE" d="M297.538,216.508h-3.052c-0.138,0-0.25,0.112-0.25,0.25v4.865c0,2.013-0.115,2.756-0.213,3.025
		c-0.134,0.372-0.388,0.689-0.754,0.943c-0.373,0.259-0.784,0.385-1.259,0.385c-0.399,0-0.73-0.092-0.983-0.273
		c-0.254-0.182-0.424-0.424-0.52-0.739c-0.072-0.234-0.158-0.929-0.158-2.907v-5.299c0-0.138-0.112-0.25-0.25-0.25h-3.051
		c-0.138,0-0.25,0.112-0.25,0.25v7.297c0,1.115,0.146,2.008,0.434,2.654c0.297,0.662,0.782,1.184,1.443,1.55
		c0.651,0.359,1.394,0.542,2.206,0.542c0.798,0,1.565-0.188,2.28-0.562c0.494-0.254,0.926-0.578,1.292-0.968v1.018
		c0,0.138,0.112,0.25,0.25,0.25h2.834c0.138,0,0.25-0.112,0.25-0.25v-11.531C297.788,216.62,297.676,216.508,297.538,216.508z"/>
	<path fill="#0071CE" d="M303.749,212.121h-3.051c-0.138,0-0.25,0.112-0.25,0.25v2.823c0,0.138,0.112,0.25,0.25,0.25h3.051
		c0.138,0,0.25-0.112,0.25-0.25v-2.823C303.999,212.233,303.887,212.121,303.749,212.121z"/>
	<path fill="#0071CE" d="M303.749,216.508h-3.051c-0.138,0-0.25,0.112-0.25,0.25v11.531c0,0.138,0.112,0.25,0.25,0.25h3.051
		c0.138,0,0.25-0.112,0.25-0.25v-11.531C303.999,216.62,303.887,216.508,303.749,216.508z"/>
	<path fill="#0071CE" d="M317.3,216.508h-3.052c-0.138,0-0.25,0.112-0.25,0.25v4.865c0,2.013-0.115,2.756-0.213,3.025
		c-0.134,0.372-0.388,0.689-0.754,0.943c-0.373,0.259-0.784,0.385-1.259,0.385c-0.399,0-0.73-0.092-0.983-0.273
		c-0.254-0.182-0.424-0.424-0.52-0.739c-0.072-0.234-0.158-0.929-0.158-2.907v-5.299c0-0.138-0.112-0.25-0.25-0.25h-3.051
		c-0.138,0-0.25,0.112-0.25,0.25v7.297c0,1.115,0.146,2.008,0.434,2.654c0.297,0.662,0.782,1.184,1.443,1.55
		c0.651,0.359,1.394,0.542,2.206,0.542c0.798,0,1.565-0.188,2.28-0.562c0.494-0.254,0.926-0.578,1.292-0.968v1.018
		c0,0.138,0.112,0.25,0.25,0.25h2.834c0.138,0,0.25-0.112,0.25-0.25v-11.531C317.55,216.62,317.438,216.508,317.3,216.508z"/>
	<path fill="#0071CE" d="M337.107,218.428c-0.311-0.712-0.787-1.261-1.417-1.63c-0.624-0.365-1.39-0.551-2.276-0.551
		c-0.703,0-1.374,0.163-1.994,0.484c-0.527,0.274-1.027,0.67-1.49,1.18c-0.34-0.507-0.759-0.901-1.248-1.176
		c-0.579-0.324-1.267-0.488-2.044-0.488c-1.262,0-2.384,0.483-3.344,1.438v-0.927c0-0.138-0.112-0.25-0.25-0.25h-2.812
		c-0.138,0-0.25,0.112-0.25,0.25v11.531c0,0.138,0.112,0.25,0.25,0.25h3.051c0.138,0,0.25-0.112,0.25-0.25v-5.603
		c0-1.074,0.078-1.847,0.231-2.298c0.146-0.428,0.378-0.745,0.712-0.97c0.333-0.224,0.713-0.337,1.131-0.337
		c0.336,0,0.601,0.065,0.785,0.192c0.186,0.131,0.319,0.328,0.411,0.604c0.068,0.204,0.149,0.733,0.149,2.092v6.319
		c0,0.138,0.112,0.25,0.25,0.25h3.052c0.138,0,0.25-0.112,0.25-0.25v-5.537c0-1.056,0.08-1.831,0.237-2.306
		c0.15-0.454,0.386-0.787,0.72-1.019c0.336-0.232,0.684-0.346,1.062-0.346c0.501,0,0.858,0.176,1.091,0.535
		c0.127,0.2,0.277,0.724,0.277,2.081v6.591c0,0.138,0.112,0.25,0.25,0.25h3.051c0.138,0,0.25-0.112,0.25-0.25v-7.373
		C337.442,219.771,337.333,218.957,337.107,218.428z"/>
</g>
<g>
	<path fill="#E4762E" d="M150.298,160.096c0,6.908-3.253,12.627-9.75,17.154c-7.153,5.041-16.821,7.562-29.009,7.562H64.244V59.605
		h47.051c12.188,0,21.855,2.463,29.009,7.385c6.662,4.527,9.994,10.307,9.994,17.332V160.096z M112.758,162.25V82.167
		c0-2.99-1.277-4.967-3.826-5.924c-1.358-0.479-3.823-0.719-7.389-0.719v93.368c3.907,0,6.368-0.178,7.389-0.537
		C111.48,167.398,112.758,165.363,112.758,162.25z"/>
	<path fill="#E4762E" d="M266.91,184.812h-36.81l-6.495-33.627H206.37l-6.498,33.627h-36.811L191.16,59.605h47.651L266.91,184.812z
		 M220.36,134.013l-5.496-37.561l-5.249,37.561H220.36z"/>
	<path fill="#E4762E" d="M363.777,166.568c0,4.891-3.254,9.242-9.752,13.057c-7.477,4.414-17.147,6.619-29.009,6.619
		c-12.677,0-22.916-1.848-30.716-5.545c-8.453-4.053-12.677-9.719-12.677-16.992v-80.67c0-7.986,3.085-13.891,9.264-17.707
		c7.148-4.41,18.527-6.617,34.129-6.617c13.487,0,23.562,2.207,30.229,6.617c5.688,3.816,8.532,9.004,8.532,15.561v19.717h-33.885
		V78.585c0-1.078-0.428-1.859-1.276-2.34c-0.854-0.48-2.213-0.721-4.083-0.721s-3.272,0.24-4.209,0.719
		c-0.938,0.48-1.402,1.258-1.402,2.334v87.264c0,0.959,0.553,1.707,1.657,2.244c1.104,0.539,2.422,0.807,3.954,0.807
		c1.87,0,3.229-0.268,4.083-0.807c0.849-0.539,1.276-1.289,1.276-2.25v-16.92h33.885V166.568z"/>
</g>
<polygon fill="#0071CE" points="346.95,113.033 350.852,120.937 359.573,122.205 353.262,128.357 354.752,137.044 346.95,132.943 
	339.149,137.044 340.639,128.357 334.327,122.205 343.05,120.937 "/>
<rect x="58.203" y="197.385" fill="#0071CE" width="279.574" height="3.201"/>
</svg>
